<svg viewBox="-931.5 -464.5 1863 929" width="1863" height="929" style="background-color: rgb(255, 255, 255);" xmlns="http://www.w3.org/2000/svg"><path d="M-212.0731110587298,28.707036119860373L-216.8389582460106,28.42628582439063M-216.8389582460106,-82.54547790921802L-216.8389582460106,28.42628582439063M-216.8389582460106,28.42628582439063L-243.81878267017092,55.4086873680107M-212.0731110587298,-82.26472761374828L-212.0731110587298,28.707036119860373M-212.0731110587298,28.707036119860373L-239.05293548289012,55.68943766348045" style="fill:none;stroke:rgb(0,0,0);stroke-width:1;stroke-linecap:round"></path><path d="M-212.0731110587298,28.707036119860373L-216.8389582460106,28.42628582439063L-216.8389582460106,-82.54547790921802z" style="fill:rgb(239,234,243); fill-opacity: 0.58"></path><path d="M-86.88837848071108,35.16523051037213L-148.03418843978645,31.563204776403598M-148.03418843978648,-76.94055043952895L-148.03418843978645,31.563204776403598M-148.03418843978645,31.563204776403598L-174.4139824215716,57.94551856259315" style="fill:none;stroke:rgb(0,0,0);stroke-width:1;stroke-linecap:round"></path><path d="M-212.0731110587298,-82.26472761374829L-212.0731110587298,28.707036119860373L-216.8389582460106,-82.54547790921802z" style="fill:rgb(239,234,243); fill-opacity: 0.58"></path><path d="M-212.0731110587298,-82.26472761374828L-216.8389582460106,-82.54547790921802M-216.8389582460106,-82.54547790921802L-243.81878267017092,-55.56307636559795M-212.0731110587298,-82.26472761374828L-239.05293548289012,-55.28232607012821" style="fill:none;stroke:rgb(0,0,0);stroke-width:1;stroke-linecap:round"></path><path d="M-86.88837848071108,35.16523051037214L-148.03418843978645,31.563204776403598L-148.03418843978645,-76.94055043952895z" style="fill:rgb(239,234,243); fill-opacity: 0.58"></path><path d="M-86.88837848071108,-73.33852470556042L-86.88837848071108,35.16523051037213M-86.88837848071108,35.16523051037213L-113.2681724624962,61.54754429656168" style="fill:none;stroke:rgb(0,0,0);stroke-width:1;stroke-linecap:round"></path><path d="M-243.81878267017098,55.4086873680107L-216.8389582460106,28.42628582439063L-212.0731110587298,28.707036119860373z" style="fill:rgb(239,234,243); fill-opacity: 0.58"></path><path d="M-86.88837848071108,-73.33852470556042L-148.03418843978648,-76.94055043952895M-148.03418843978648,-76.94055043952895L-174.4139824215716,-50.55823665333941" style="fill:none;stroke:rgb(0,0,0);stroke-width:1;stroke-linecap:round"></path><path d="M-86.88837848071108,-73.33852470556042L-86.88837848071108,35.16523051037214L-148.03418843978645,-76.94055043952895zM-239.05293548289015,55.68943766348045L-212.0731110587298,28.707036119860373L-212.0731110587298,-82.26472761374829zM-216.8389582460106,-82.54547790921802L-216.8389582460106,28.42628582439063L-243.81878267017098,-55.56307636559795zM-174.41398242157157,57.94551856259315L-148.03418843978645,31.563204776403598L-86.88837848071108,35.16523051037214z" style="fill:rgb(239,234,243); fill-opacity: 0.58"></path><path d="M-86.88837848071108,-73.33852470556042L-113.26817246249621,-46.95621091937087M38.17319536092603,33.962254713086885L-22.972614598149352,30.36022897911835M-22.972614598149356,-55.059781905346L-22.972614598149352,30.36022897911835M-22.972614598149352,30.36022897911835L-43.74021185383522,51.12980996079808" style="fill:none;stroke:rgb(0,0,0);stroke-width:1;stroke-linecap:round"></path><path d="M-239.05293548289015,-55.28232607012821L-212.0731110587298,-82.26472761374829L-216.8389582460106,-82.54547790921802z" style="fill:rgb(239,234,243); fill-opacity: 0.58"></path><path d="M37.53206727123915,21.816201253203243L-23.613742687836243,18.214175519234708M-23.613742687836243,3.9415440963030326L-23.613742687836243,18.214175519234708M-23.613742687836243,18.214175519234708L-27.083752327277775,21.684516614849812" style="fill:none;stroke:rgb(0,0,0);stroke-width:1;stroke-linecap:round"></path><path d="M-148.03418843978645,-76.94055043952895L-148.03418843978645,31.563204776403598L-174.41398242157157,-50.55823665333941z" style="fill:rgb(239,234,243); fill-opacity: 0.58"></path><path d="M37.53206727123915,7.543569830271568L-23.613742687836243,3.9415440963030326M-23.613742687836243,3.9415440963030326L-27.083752327277775,7.411885191918138" style="fill:none;stroke:rgb(0,0,0);stroke-width:1;stroke-linecap:round"></path><path d="M-239.05293548289015,55.68943766348045L-243.81878267017098,55.4086873680107L-212.0731110587298,28.707036119860373z" style="fill:rgb(239,234,243); fill-opacity: 0.58"></path><path d="M37.53206727123914,21.816201253203243L-23.61374268783624,18.214175519234704L-23.613742687836243,3.9415440963030344z" style="fill:rgb(233,241,221); fill-opacity: 0.78"></path><path d="M38.17319536092602,33.962254713086885L-22.972614598149352,30.36022897911835L-22.972614598149356,-55.059781905346z" style="fill:rgb(239,234,243); fill-opacity: 0.58"></path><path d="M-23.613742687836243,3.9415440963030344L-23.61374268783624,18.214175519234704L-27.08375232727777,7.411885191918138z" style="fill:rgb(233,241,221); fill-opacity: 0.78"></path><path d="M-113.26817246249618,61.54754429656168L-86.88837848071108,35.16523051037214L-86.88837848071108,-73.33852470556042z" style="fill:rgb(239,234,243); fill-opacity: 0.58"></path><path d="M38.17319536092602,-51.45775617137747L38.17319536092603,33.962254713086885M38.17319536092603,33.962254713086885L17.405598105240163,54.731835694766616" style="fill:none;stroke:rgb(0,0,0);stroke-width:1;stroke-linecap:round"></path><path d="M-27.08375232727777,21.68451661484981L-23.61374268783624,18.214175519234704L37.53206727123914,21.816201253203243zM-23.61374268783624,18.214175519234704L-27.08375232727777,21.68451661484981L-27.08375232727777,7.411885191918138zM37.532067271239136,7.543569830271571L37.53206727123914,21.816201253203243L-23.613742687836243,3.9415440963030344z" style="fill:rgb(233,241,221); fill-opacity: 0.78"></path><path d="M-216.8389582460106,28.42628582439063L-243.81878267017098,55.4086873680107L-243.81878267017098,-55.56307636559795z" style="fill:rgb(239,234,243); fill-opacity: 0.58"></path><path d="M-27.083752327277775,7.411885191918138L-27.083752327277775,21.684516614849812M-27.083752327277775,21.684516614849812L34.062057631797614,25.286542348818347M37.53206727123915,7.543569830271568L37.53206727123915,21.816201253203243M37.53206727123915,21.816201253203243L34.062057631797614,25.286542348818347M37.53206794083896,7.543569590571322L37.53206794083896,21.81620214778983M37.53206794083896,21.81620214778983L34.06205830139743,25.28654324340494M37.53206794083896,21.81620214778983L101.99738782274777,19.38307318670063M38.17319536092602,-51.45775617137747L-22.972614598149356,-55.059781905346M-22.972614598149356,-55.059781905346L-43.74021185383523,-34.290200923666276M-27.083752327277775,7.411885191918138L34.062057631797614,11.013910925886673" style="fill:none;stroke:rgb(0,0,0);stroke-width:1;stroke-linecap:round"></path><path d="M-27.08375232727777,7.411885191918138L34.06205763179761,11.013910925886675L-23.613742687836243,3.9415440963030344zM34.06205763179761,11.013910925886675L37.532067271239136,7.543569830271571L-23.613742687836243,3.9415440963030344z" style="fill:rgb(233,241,221); fill-opacity: 0.78"></path><path d="M37.53206727123915,7.543569830271568L34.062057631797614,11.013910925886673M37.53206794083896,7.543569590571322L34.06205830139743,11.01391068618643M37.53206794083896,7.543569590571322L101.99738782274777,19.38307318670063" style="fill:none;stroke:rgb(0,0,0);stroke-width:1;stroke-linecap:round"></path><path d="M38.173195360926016,-51.45775617137747L38.17319536092602,33.962254713086885L-22.972614598149356,-55.059781905346z" style="fill:rgb(239,234,243); fill-opacity: 0.58"></path><path d="M34.06205763179761,25.286542348818347L-27.08375232727777,21.68451661484981L37.53206727123914,21.816201253203243zM34.06205763179761,25.286542348818347L37.53206727123914,21.816201253203243L37.532067271239136,7.543569830271571z" style="fill:rgb(233,241,221); fill-opacity: 0.78"></path><path d="M37.532068083079146,7.543569878096086L37.532068083079146,21.816201301027753L34.06205844363761,25.286542396642858z" style="fill:rgb(215,239,244); fill-opacity: 0.78"></path><path d="M-27.08375232727777,7.411885191918138L-27.08375232727777,21.68451661484981L34.06205763179761,11.013910925886675z" style="fill:rgb(233,241,221); fill-opacity: 0.78"></path><path d="M-113.26817246249618,-46.95621091937086L-86.88837848071108,-73.33852470556042L-148.03418843978645,-76.94055043952895zM-239.05293548289015,-55.28232607012821L-239.05293548289015,55.68943766348045L-212.0731110587298,-82.26472761374829z" style="fill:rgb(239,234,243); fill-opacity: 0.58"></path><path d="M37.532068083079146,21.816201301027753L37.532068083079146,7.543569878096086L101.99738794814134,19.383074217991275z" style="fill:rgb(215,239,244); fill-opacity: 0.78"></path><path d="M-27.08375232727777,21.68451661484981L34.06205763179761,25.286542348818347L34.06205763179761,11.013910925886675z" style="fill:rgb(233,241,221); fill-opacity: 0.78"></path><path d="M-231.77832282804437,-8.988238619803779L-236.54417001532516,-9.268988915273521M-236.54417001532516,-23.541620338205195L-236.54417001532516,-9.268988915273521M-236.54417001532516,-9.268988915273521L-240.01417965476674,-5.798647819658415M-234.16125262389554,-23.401244892108913L-234.16125262389554,-9.128613894534805M-234.16125262389554,-9.128613894534805L-237.63126171179388,-5.658273350515563M-234.16125262389554,-9.128613894534805L-168.99758255798798,-10.57475257186796" style="fill:none;stroke:rgb(0,0,0);stroke-width:1;stroke-linecap:round"></path><path d="M34.06205763179761,11.013910925886675L34.06205763179761,25.286542348818347L37.532067271239136,7.543569830271571z" style="fill:rgb(233,241,221); fill-opacity: 0.78"></path><path d="M37.532068083079146,7.543569878096086L34.06205844363761,25.286542396642858L34.06205844363761,11.013910973711187z" style="fill:rgb(215,239,244); fill-opacity: 0.78"></path><path d="M-231.77832282804437,-23.26087004273545L-231.77832282804437,-8.988238619803779M-231.77832282804437,-8.988238619803779L-235.2483324674859,-5.517897524188673" style="fill:none;stroke:rgb(0,0,0);stroke-width:1;stroke-linecap:round"></path><path d="M-43.74021185383522,51.12980996079808L-22.972614598149352,30.36022897911835L38.17319536092602,33.962254713086885z" style="fill:rgb(239,234,243); fill-opacity: 0.58"></path><path d="M-231.7783228280443,-8.98823861980378L-236.54417001532516,-9.268988915273521L-236.54417001532516,-23.541620338205195z" style="fill:rgb(233,241,221); fill-opacity: 0.78"></path><path d="M183.5011695662004,40.45786224015927L104.21876436810766,35.78743160941636M104.21876436810766,-44.06921087719757L104.21876436810766,35.78743160941636M104.21876436810766,35.78743160941636L84.80375174774618,55.20429875655492" style="fill:none;stroke:rgb(0,0,0);stroke-width:1;stroke-linecap:round"></path><path d="M34.06205844363761,25.286542396642858L37.532068083079146,21.816201301027753L101.99738794814134,19.383074217991275z" style="fill:rgb(215,239,244); fill-opacity: 0.78"></path><path d="M34.062057631797614,11.013910925886673L34.062057631797614,25.286542348818347M34.06205830139743,25.28654324340494L34.06205830139743,11.01391068618643M34.06205830139743,25.28654324340494L101.99738782274777,19.38307318670063" style="fill:none;stroke:rgb(0,0,0);stroke-width:1;stroke-linecap:round"></path><path d="M-231.7783228280443,-23.260870042735455L-231.7783228280443,-8.98823861980378L-236.54417001532516,-23.541620338205195z" style="fill:rgb(233,241,221); fill-opacity: 0.78"></path><path d="M-231.77832282804437,-23.26087004273545L-236.54417001532516,-23.541620338205195M-236.54417001532516,-23.541620338205195L-240.01417965476674,-20.07127924259009" style="fill:none;stroke:rgb(0,0,0);stroke-width:1;stroke-linecap:round"></path><path d="M-148.03418843978645,31.563204776403598L-174.41398242157157,57.94551856259315L-174.41398242157157,-50.55823665333941z" style="fill:rgb(239,234,243); fill-opacity: 0.58"></path><path d="M-234.16125262389554,-23.401244892108913L-237.63126171179388,-19.930904348089673M-234.16125262389554,-23.401244892108913L-168.99758255798798,-10.57475257186796" style="fill:none;stroke:rgb(0,0,0);stroke-width:1;stroke-linecap:round"></path><path d="M-113.26817246249618,61.54754429656168L-174.41398242157157,57.94551856259315L-86.88837848071108,35.16523051037214z" style="fill:rgb(239,234,243); fill-opacity: 0.58"></path><path d="M38.17319536092602,-51.45775617137747L17.405598105240156,-30.688175189697738M-231.77832282804437,-23.26087004273545L-235.2483324674859,-19.790528947120347" style="fill:none;stroke:rgb(0,0,0);stroke-width:1;stroke-linecap:round"></path><path d="M37.532068083079146,7.543569878096086L34.06205844363761,11.013910973711187L101.99738794814134,19.383074217991275z" style="fill:rgb(215,239,244); fill-opacity: 0.78"></path><path d="M-240.01417965476668,-5.798647819658415L-236.54417001532516,-9.268988915273521L-231.7783228280443,-8.98823861980378z" style="fill:rgb(233,241,221); fill-opacity: 0.78"></path><path d="M-234.16124642168478,-23.401245190470323L-234.16124642168478,-9.12861376753865L-237.63125606112627,-5.658272671923544z" style="fill:rgb(215,239,244); fill-opacity: 0.78"></path><path d="M34.06205830139743,11.01391068618643L101.99738782274777,19.38307318670063" style="fill:none;stroke:rgb(0,0,0);stroke-width:1;stroke-linecap:round"></path><path d="M-243.81878267017098,-55.56307636559795L-239.05293548289015,-55.28232607012821L-216.8389582460106,-82.54547790921802z" style="fill:rgb(239,234,243); fill-opacity: 0.58"></path><path d="M-235.24833246748588,-5.517897524188674L-231.7783228280443,-8.98823861980378L-231.7783228280443,-23.260870042735455zM-236.54417001532516,-23.541620338205195L-236.54417001532516,-9.268988915273521L-240.01417965476668,-20.071279242590094z" style="fill:rgb(233,241,221); fill-opacity: 0.78"></path><path d="M34.06205844363761,11.013910973711187L34.06205844363761,25.286542396642858L101.99738794814134,19.383074217991275z" style="fill:rgb(215,239,244); fill-opacity: 0.78"></path><path d="M-235.24833246748588,-19.79052894712035L-231.7783228280443,-23.260870042735455L-236.54417001532516,-23.541620338205195z" style="fill:rgb(233,241,221); fill-opacity: 0.78"></path><path d="M-234.16124642168478,-9.12861376753865L-234.16124642168478,-23.401245190470323L-168.9975764612849,-10.574752208215992z" style="fill:rgb(215,239,244); fill-opacity: 0.78"></path><path d="M-235.24833246748588,-5.517897524188674L-240.01417965476668,-5.798647819658415L-231.7783228280443,-8.98823861980378zM-236.54417001532516,-9.268988915273521L-240.01417965476668,-5.798647819658415L-240.01417965476668,-20.071279242590094z" style="fill:rgb(233,241,221); fill-opacity: 0.78"></path><path d="M-22.972614598149356,-55.059781905346L-22.972614598149352,30.36022897911835L-43.74021185383523,-34.290200923666276z" style="fill:rgb(239,234,243); fill-opacity: 0.58"></path><path d="M-234.16124642168478,-23.401245190470323L-237.63125606112627,-5.658272671923544L-237.63125606112627,-19.930904094855222z" style="fill:rgb(215,239,244); fill-opacity: 0.78"></path><path d="M-235.24833246748588,-19.79052894712035L-235.24833246748588,-5.517897524188674L-231.7783228280443,-23.260870042735455z" style="fill:rgb(233,241,221); fill-opacity: 0.78"></path><path d="M-237.63125606112627,-5.658272671923544L-234.16124642168478,-9.12861376753865L-168.9975764612849,-10.574752208215992z" style="fill:rgb(215,239,244); fill-opacity: 0.78"></path><path d="M-240.01417965476668,-20.071279242590094L-235.24833246748588,-19.79052894712035L-236.54417001532516,-23.541620338205195z" style="fill:rgb(233,241,221); fill-opacity: 0.78"></path><path d="M-240.01417965476674,-20.07127924259009L-240.01417965476674,-5.798647819658415M-240.01417965476674,-5.798647819658415L-235.2483324674859,-5.517897524188673M-237.63126171179388,-5.658273350515563L-237.63126171179388,-19.930904348089673M-237.63126171179388,-5.658273350515563L-168.99758255798798,-10.57475257186796M-243.81878267017092,-55.56307636559795L-243.81878267017092,55.4086873680107M-243.81878267017092,55.4086873680107L-239.05293548289012,55.68943766348045M-235.2483324674859,-19.790528947120347L-235.2483324674859,-5.517897524188673" style="fill:none;stroke:rgb(0,0,0);stroke-width:1;stroke-linecap:round"></path><path d="M183.5011695662004,40.45786224015927L104.21876436810767,35.78743160941636L104.21876436810767,-44.06921087719757z" style="fill:rgb(239,234,243); fill-opacity: 0.58"></path><path d="M-234.16124642168478,-23.401245190470323L-237.63125606112627,-19.930904094855222L-168.9975764612849,-10.574752208215992z" style="fill:rgb(215,239,244); fill-opacity: 0.78"></path><path d="M-240.01417965476668,-5.798647819658415L-235.24833246748588,-5.517897524188674L-235.24833246748588,-19.79052894712035z" style="fill:rgb(233,241,221); fill-opacity: 0.78"></path><path d="M-239.05293548289012,-55.28232607012821L-239.05293548289012,55.68943766348045" style="fill:none;stroke:rgb(0,0,0);stroke-width:1;stroke-linecap:round"></path><path d="M-240.01417965476668,-20.071279242590094L-240.01417965476668,-5.798647819658415L-235.24833246748588,-19.79052894712035z" style="fill:rgb(233,241,221); fill-opacity: 0.78"></path><path d="M-240.01417965476674,-20.07127924259009L-235.2483324674859,-19.790528947120347M-237.63126171179388,-19.930904348089673L-168.99758255798798,-10.57475257186796" style="fill:none;stroke:rgb(0,0,0);stroke-width:1;stroke-linecap:round"></path><path d="M17.405598105240156,54.731835694766616L38.17319536092602,33.962254713086885L38.173195360926016,-51.45775617137747z" style="fill:rgb(239,234,243); fill-opacity: 0.58"></path><path d="M-237.63125606112627,-19.930904094855222L-237.63125606112627,-5.658272671923544L-168.9975764612849,-10.574752208215992z" style="fill:rgb(215,239,244); fill-opacity: 0.78"></path><path d="M183.5011695662004,-39.398780246454656L183.5011695662004,40.45786224015927M183.5011695662004,40.45786224015927L164.0861569458389,59.874729387297826M183.5011695662004,-39.398780246454656L104.21876436810766,-44.06921087719757M104.21876436810766,-44.06921087719757L84.80375174774618,-24.652343730059012M182.5379407278554,-23.518610832221583L103.25553552976272,-28.189041462964504M103.25553552976272,-37.704129078252286L103.25553552976272,-28.189041462964504M103.25553552976272,-28.189041462964504L100.94219577013504,-25.875480732554433" style="fill:none;stroke:rgb(0,0,0);stroke-width:1;stroke-linecap:round"></path><path d="M-243.81878267017098,55.4086873680107L-239.05293548289015,55.68943766348045L-239.05293548289015,-55.28232607012821z" style="fill:rgb(239,234,243); fill-opacity: 0.58"></path><path d="M182.5379407278554,-33.033698447509366L103.25553552976272,-37.704129078252286M103.25553552976272,-37.704129078252286L100.94219577013504,-35.39056834784222M-109.23054080564755,8.806474414349097L-170.37635076472293,5.20444868038056M-170.37635076472293,-4.310638934907223L-170.37635076472293,5.20444868038056M-170.37635076472293,5.20444868038056L-172.6896905243506,7.51800941079063" style="fill:none;stroke:rgb(0,0,0);stroke-width:1;stroke-linecap:round"></path><path d="M-174.41398242157157,-50.55823665333941L-113.26817246249618,-46.95621091937086L-148.03418843978645,-76.94055043952895z" style="fill:rgb(239,234,243); fill-opacity: 0.58"></path><path d="M103.25553552976272,-37.704129078252286L103.25553552976272,-28.189041462964507L100.94219577013504,-35.39056834784222z" style="fill:rgb(233,241,221); fill-opacity: 0.78"></path><path d="M-113.26817246249618,-46.95621091937086L-113.26817246249618,61.54754429656168L-86.88837848071108,-73.33852470556042zM17.40559810524015,-30.688175189697738L38.173195360926016,-51.45775617137747L-22.972614598149356,-55.059781905346zM183.5011695662004,-39.398780246454656L183.5011695662004,40.45786224015927L104.21876436810767,-44.06921087719757z" style="fill:rgb(239,234,243); fill-opacity: 0.58"></path><path d="M-109.23054080564755,-0.7086132009386857L-170.37635076472293,-4.310638934907223M-170.37635076472293,-4.310638934907223L-172.6896905243506,-1.9970782044971531" style="fill:none;stroke:rgb(0,0,0);stroke-width:1;stroke-linecap:round"></path><path d="M103.25553552976272,-28.189041462964507L100.94219577013504,-25.875480732554433L100.94219577013504,-35.39056834784222zM182.53794072785544,-23.518610832221597L103.25553552976272,-28.189041462964507L103.25553552976272,-37.704129078252286z" style="fill:rgb(233,241,221); fill-opacity: 0.78"></path><path d="M-174.4139824215716,-50.55823665333941L-174.4139824215716,57.94551856259315M-174.4139824215716,57.94551856259315L-113.2681724624962,61.54754429656168" style="fill:none;stroke:rgb(0,0,0);stroke-width:1;stroke-linecap:round"></path><path d="M-170.3763507647229,-4.310638934907221L-170.3763507647229,5.204448680380562L-172.68969052435057,-1.9970782044971513z" style="fill:rgb(233,241,221); fill-opacity: 0.78"></path><path d="M-22.972614598149352,30.36022897911835L-43.74021185383522,51.12980996079808L-43.74021185383523,-34.290200923666276z" style="fill:rgb(239,234,243); fill-opacity: 0.58"></path><path d="M100.94219577013504,-35.39056834784222L100.94219577013504,-25.875480732554433M100.94219577013504,-25.875480732554433L180.22460096822775,-21.205050101811516" style="fill:none;stroke:rgb(0,0,0);stroke-width:1;stroke-linecap:round"></path><path d="M-109.23054080564751,8.806474414349099L-170.3763507647229,5.204448680380562L-170.3763507647229,-4.310638934907221zM100.94219577013504,-25.875480732554433L103.25553552976272,-28.189041462964507L182.53794072785544,-23.518610832221597zM-170.3763507647229,5.204448680380562L-172.68969052435057,7.51800941079063L-172.68969052435057,-1.9970782044971513z" style="fill:rgb(233,241,221); fill-opacity: 0.78"></path><path d="M-243.81878267017098,-55.56307636559795L-243.81878267017098,55.4086873680107L-239.05293548289015,-55.28232607012821zM17.405598105240156,54.731835694766616L-43.74021185383522,51.12980996079808L38.17319536092602,33.962254713086885z" style="fill:rgb(239,234,243); fill-opacity: 0.58"></path><path d="M-172.68969052435057,7.51800941079063L-170.3763507647229,5.204448680380562L-109.23054080564751,8.806474414349099z" style="fill:rgb(233,241,221); fill-opacity: 0.78"></path><path d="M100.94219577013504,-35.39056834784222L180.22460096822775,-30.7201377170993" style="fill:none;stroke:rgb(0,0,0);stroke-width:1;stroke-linecap:round"></path><path d="M84.80375174774618,55.20429875655492L104.21876436810767,35.78743160941636L183.5011695662004,40.45786224015927z" style="fill:rgb(239,234,243); fill-opacity: 0.58"></path><path d="M-172.6896905243506,-1.9970782044971531L-172.6896905243506,7.51800941079063M-172.6896905243506,7.51800941079063L-111.54388056527522,11.120035144759166" style="fill:none;stroke:rgb(0,0,0);stroke-width:1;stroke-linecap:round"></path><path d="M182.53794072785544,-33.03369844750937L182.53794072785544,-23.518610832221597L103.25553552976272,-37.704129078252286zM100.94219577013504,-35.39056834784222L180.22460096822775,-30.720137717099306L103.25553552976272,-37.704129078252286zM-109.23054080564751,-0.7086132009386843L-109.23054080564751,8.806474414349099L-170.3763507647229,-4.310638934907221z" style="fill:rgb(233,241,221); fill-opacity: 0.78"></path><path d="M-172.6896905243506,-1.9970782044971531L-111.54388056527522,1.604947529471384" style="fill:none;stroke:rgb(0,0,0);stroke-width:1;stroke-linecap:round"></path><path d="M-172.68969052435057,-1.9970782044971513L-111.5438805652752,1.6049475294713855L-170.3763507647229,-4.310638934907221zM100.94219577013504,-35.39056834784222L100.94219577013504,-25.875480732554433L180.22460096822775,-30.720137717099306zM180.22460096822775,-30.720137717099306L182.53794072785544,-33.03369844750937L103.25553552976272,-37.704129078252286z" style="fill:rgb(233,241,221); fill-opacity: 0.78"></path><path d="M-109.23054080564755,-0.7086132009386857L-109.23054080564755,8.806474414349097M-109.23054080564755,8.806474414349097L-111.54388056527522,11.120035144759166M-109.2305387234777,-0.7086127301712996L-109.2305387234777,8.806474885116483M-109.2305387234777,8.806474885116483L-111.54387848310537,11.120035615526552M-109.2305387234777,8.806474885116483L-41.47216472723833,6.774478363833302M183.5011695662004,-39.398780246454656L164.0861569458389,-19.9819130993161" style="fill:none;stroke:rgb(0,0,0);stroke-width:1;stroke-linecap:round"></path><path d="M180.22460096822775,-21.205050101811523L100.94219577013504,-25.875480732554433L182.53794072785544,-23.518610832221597z" style="fill:rgb(233,241,221); fill-opacity: 0.78"></path><path d="M182.53793168838564,-33.03369796280218L182.53793168838564,-23.518610347514393M182.53793168838564,-23.518610347514393L180.22459192875795,-21.205049617104326M182.53793168838564,-23.518610347514393L245.60822403275722,-10.90531622849389M182.5379407278554,-33.033698447509366L182.5379407278554,-23.518610832221583M182.5379407278554,-23.518610832221583L180.22460096822775,-21.205050101811516" style="fill:none;stroke:rgb(0,0,0);stroke-width:1;stroke-linecap:round"></path><path d="M-111.5438805652752,1.6049475294713855L-109.23054080564751,-0.7086132009386843L-170.3763507647229,-4.310638934907221z" style="fill:rgb(233,241,221); fill-opacity: 0.78"></path><path d="M104.21876436810767,-44.06921087719757L104.21876436810767,35.78743160941636L84.80375174774618,-24.652343730059012z" style="fill:rgb(239,234,243); fill-opacity: 0.58"></path><path d="M-172.68969052435057,-1.9970782044971513L-172.68969052435057,7.51800941079063L-111.5438805652752,1.6049475294713855zM-111.5438805652752,11.120035144759166L-172.68969052435057,7.51800941079063L-109.23054080564751,8.806474414349099z" style="fill:rgb(233,241,221); fill-opacity: 0.78"></path><path d="M-243.81878267017092,-55.56307636559795L-239.05293548289012,-55.28232607012821M-109.23054080564755,-0.7086132009386857L-111.54388056527522,1.604947529471384M-109.2305387234777,-0.7086127301712996L-111.54387848310537,1.6049480002387695M-109.2305387234777,-0.7086127301712996L-41.47216472723833,6.774478363833302M182.53793168838564,-33.03369796280218L180.22459192875795,-30.72013723239211M182.53793168838564,-33.03369796280218L245.60822403275722,-10.90531622849389M182.5379407278554,-33.033698447509366L180.22460096822775,-30.7201377170993" style="fill:none;stroke:rgb(0,0,0);stroke-width:1;stroke-linecap:round"></path><path d="M-111.5438805652752,11.120035144759166L-109.23054080564751,8.806474414349099L-109.23054080564751,-0.7086132009386843z" style="fill:rgb(233,241,221); fill-opacity: 0.78"></path><path d="M-109.23053999380751,-0.7086131531141704L-109.23053999380751,8.806474462173613L-111.54387975343519,11.120035192583682z" style="fill:rgb(215,239,244); fill-opacity: 0.78"></path><path d="M-113.26817246249621,-46.95621091937087L-113.2681724624962,61.54754429656168" style="fill:none;stroke:rgb(0,0,0);stroke-width:1;stroke-linecap:round"></path><path d="M100.94219577013504,-25.875480732554433L180.22460096822775,-21.205050101811523L180.22460096822775,-30.720137717099306z" style="fill:rgb(233,241,221); fill-opacity: 0.78"></path><path d="M182.53794061892796,-33.033698453926156L182.53794061892796,-23.518610838638384L180.22460085930024,-21.20505010822831z" style="fill:rgb(215,239,244); fill-opacity: 0.78"></path><path d="M180.22460096822775,-21.205050101811523L182.53794072785544,-23.518610832221597L182.53794072785544,-33.03369844750937z" style="fill:rgb(233,241,221); fill-opacity: 0.78"></path><path d="M-109.23053999380751,8.806474462173613L-109.23053999380751,-0.7086131531141704L-41.4721639686045,6.7744784163280345z" style="fill:rgb(215,239,244); fill-opacity: 0.78"></path><path d="M-172.68969052435057,7.51800941079063L-111.5438805652752,11.120035144759166L-111.5438805652752,1.6049475294713855z" style="fill:rgb(233,241,221); fill-opacity: 0.78"></path><path d="M-111.54387975343519,11.120035192583682L-109.23053999380751,8.806474462173613L-41.4721639686045,6.7744784163280345z" style="fill:rgb(215,239,244); fill-opacity: 0.78"></path><path d="M-111.5438805652752,1.6049475294713855L-111.5438805652752,11.120035144759166L-109.23054080564751,-0.7086132009386843z" style="fill:rgb(233,241,221); fill-opacity: 0.78"></path><path d="M-109.23053999380751,-0.7086131531141704L-111.54387975343519,11.120035192583682L-111.54387975343519,1.6049475772958994z" style="fill:rgb(215,239,244); fill-opacity: 0.78"></path><path d="M-174.41398242157157,57.94551856259315L-113.26817246249618,61.54754429656168L-113.26817246249618,-46.95621091937086z" style="fill:rgb(239,234,243); fill-opacity: 0.58"></path><path d="M182.53794061892796,-33.033698453926156L180.22460085930024,-21.20505010822831L180.22460085930024,-30.720137723516093z" style="fill:rgb(215,239,244); fill-opacity: 0.78"></path><path d="M180.22460096822775,-30.720137717099306L180.22460096822775,-21.205050101811523L182.53794072785544,-33.03369844750937z" style="fill:rgb(233,241,221); fill-opacity: 0.78"></path><path d="M-109.23053999380751,-0.7086131531141704L-111.54387975343519,1.6049475772958994L-41.4721639686045,6.7744784163280345z" style="fill:rgb(215,239,244); fill-opacity: 0.78"></path><path d="M-111.54388056527522,1.604947529471384L-111.54388056527522,11.120035144759166M-111.54387848310537,11.120035615526552L-111.54387848310537,1.6049480002387695M-111.54387848310537,11.120035615526552L-41.47216472723833,6.774478363833302" style="fill:none;stroke:rgb(0,0,0);stroke-width:1;stroke-linecap:round"></path><path d="M-43.74021185383523,-34.290200923666276L17.40559810524015,-30.688175189697738L-22.972614598149356,-55.059781905346z" style="fill:rgb(239,234,243); fill-opacity: 0.58"></path><path d="M180.22459192875795,-21.205049617104326L180.22459192875795,-30.72013723239211M180.22459192875795,-21.205049617104326L245.60822403275722,-10.90531622849389M180.22460096822775,-30.7201377170993L180.22460096822775,-21.205050101811516" style="fill:none;stroke:rgb(0,0,0);stroke-width:1;stroke-linecap:round"></path><path d="M182.53794061892796,-23.518610838638384L182.53794061892796,-33.033698453926156L245.6082329718827,-10.905315898102659zM-111.54387975343519,1.6049475772958994L-111.54387975343519,11.120035192583682L-41.4721639686045,6.7744784163280345z" style="fill:rgb(215,239,244); fill-opacity: 0.78"></path><path d="M-43.74021185383523,-34.290200923666276L-43.74021185383522,51.12980996079808M-43.74021185383522,51.12980996079808L17.405598105240163,54.731835694766616M-111.54387848310537,1.6049480002387695L-41.47216472723833,6.774478363833302M180.22459192875795,-30.72013723239211L245.60822403275722,-10.90531622849389M326.313488228526,39.12212789676688L247.0310830304333,34.451697266023956M247.0310830304333,-19.14710335403465L247.0310830304333,34.451697266023956M247.0310830304333,34.451697266023956L233.99996428975862,47.48406074236343" style="fill:none;stroke:rgb(0,0,0);stroke-width:1;stroke-linecap:round"></path><path d="M17.40559810524015,-30.688175189697738L17.405598105240156,54.731835694766616L38.173195360926016,-51.45775617137747zM-174.41398242157157,-50.55823665333941L-174.41398242157157,57.94551856259315L-113.26817246249618,-46.95621091937086zM164.0861569458389,59.874729387297826L183.5011695662004,40.45786224015927L183.5011695662004,-39.398780246454656z" style="fill:rgb(239,234,243); fill-opacity: 0.58"></path><path d="M180.22460085930024,-21.20505010822831L182.53794061892796,-23.518610838638384L245.6082329718827,-10.905315898102659zM182.53794061892796,-33.033698453926156L180.22460085930024,-30.720137723516093L245.6082329718827,-10.905315898102659z" style="fill:rgb(215,239,244); fill-opacity: 0.78"></path><path d="M-174.4139824215716,-50.55823665333941L-113.26817246249621,-46.95621091937087" style="fill:none;stroke:rgb(0,0,0);stroke-width:1;stroke-linecap:round"></path><path d="M180.22460085930024,-30.720137723516093L180.22460085930024,-21.20505010822831L245.6082329718827,-10.905315898102659z" style="fill:rgb(215,239,244); fill-opacity: 0.78"></path><path d="M164.0861569458389,-19.981913099316102L183.5011695662004,-39.398780246454656L104.21876436810767,-44.06921087719757zM104.21876436810767,35.78743160941636L84.80375174774618,55.20429875655492L84.80375174774618,-24.652343730059012zM326.313488228526,39.12212789676688L247.0310830304333,34.451697266023956L247.0310830304333,-19.147103354034652z" style="fill:rgb(239,234,243); fill-opacity: 0.58"></path><path d="M326.313488228526,-14.476672723291735L247.0310830304333,-19.14710335403465M247.0310830304333,-19.14710335403465L233.99996428975862,-6.114739877695183M17.405598105240156,-30.688175189697738L17.405598105240163,54.731835694766616" style="fill:none;stroke:rgb(0,0,0);stroke-width:1;stroke-linecap:round"></path><path d="M164.0861569458389,59.874729387297826L84.80375174774618,55.20429875655492L183.5011695662004,40.45786224015927zM-43.74021185383522,51.12980996079808L17.405598105240156,54.731835694766616L17.40559810524015,-30.688175189697738zM-43.74021185383523,-34.290200923666276L-43.74021185383522,51.12980996079808L17.40559810524015,-30.688175189697738z" style="fill:rgb(239,234,243); fill-opacity: 0.58"></path><path d="M326.313488228526,-14.476672723291735L326.313488228526,39.12212789676688M326.313488228526,39.12212789676688L313.2823694878513,52.15449137310634M-43.74021185383523,-34.290200923666276L17.405598105240156,-30.688175189697738" style="fill:none;stroke:rgb(0,0,0);stroke-width:1;stroke-linecap:round"></path><path d="M326.313488228526,-14.476672723291735L326.313488228526,39.12212789676688L247.0310830304333,-19.147103354034652zM233.99996428975857,47.484060742363425L247.0310830304333,34.451697266023956L326.313488228526,39.12212789676688zM247.0310830304333,-19.147103354034652L247.0310830304333,34.451697266023956L233.99996428975857,-6.114739877695183z" style="fill:rgb(239,234,243); fill-opacity: 0.58"></path><path d="M84.80375174774618,-24.652343730059012L84.80375174774618,55.20429875655492M84.80375174774618,55.20429875655492L164.0861569458389,59.874729387297826" style="fill:none;stroke:rgb(0,0,0);stroke-width:1;stroke-linecap:round"></path><path d="M84.80375174774618,-24.652343730059012L164.0861569458389,-19.981913099316102L104.21876436810767,-44.06921087719757z" style="fill:rgb(239,234,243); fill-opacity: 0.58"></path><path d="M320.87403238459734,6.092880490643793L241.59162718650467,1.4224498599008784M241.59162718650467,-12.850181563030796L241.59162718650467,1.4224498599008784M241.59162718650467,1.4224498599008784L238.12161754706312,4.892790955515984M326.313488228526,-14.476672723291735L313.2823694878513,-1.444309246952265" style="fill:none;stroke:rgb(0,0,0);stroke-width:1;stroke-linecap:round"></path><path d="M164.0861569458389,-19.981913099316102L164.0861569458389,59.874729387297826L183.5011695662004,-39.398780246454656z" style="fill:rgb(239,234,243); fill-opacity: 0.58"></path><path d="M320.87403238459734,-8.179750932287881L241.59162718650467,-12.850181563030796M241.59162718650467,-12.850181563030796L238.12161754706312,-9.37984046741569" style="fill:none;stroke:rgb(0,0,0);stroke-width:1;stroke-linecap:round"></path><path d="M241.5916271865046,-12.850181563030795L241.5916271865046,1.4224498599008788L238.12161754706307,-9.379840467415688zM320.87403238459734,6.092880490643793L241.5916271865046,1.4224498599008788L241.5916271865046,-12.850181563030795z" style="fill:rgb(233,241,221); fill-opacity: 0.78"></path><path d="M247.0310830304333,34.451697266023956L233.99996428975857,47.484060742363425L233.99996428975857,-6.114739877695183zM313.28236948785127,52.15449137310634L326.313488228526,39.12212789676688L326.313488228526,-14.476672723291735z" style="fill:rgb(239,234,243); fill-opacity: 0.58"></path><path d="M241.5916271865046,1.4224498599008788L238.12161754706307,4.892790955515984L238.12161754706307,-9.379840467415688zM238.12161754706307,4.892790955515984L241.5916271865046,1.4224498599008788L320.87403238459734,6.092880490643793z" style="fill:rgb(233,241,221); fill-opacity: 0.78"></path><path d="M313.28236948785127,-1.4443092469522683L326.313488228526,-14.476672723291735L247.0310830304333,-19.147103354034652z" style="fill:rgb(239,234,243); fill-opacity: 0.58"></path><path d="M460.3394538718759,40.70149081695442L390.9673515960778,36.61486414892654M390.9673515960778,0.027990851714614507L390.9673515960778,36.61486414892654M390.9673515960778,36.61486414892654L382.07222922821705,45.51083618106196M238.12161754706312,-9.37984046741569L238.12161754706312,4.892790955515984M238.12161754706312,4.892790955515984L317.40402274515577,9.5632215862589M164.0861569458389,-19.9819130993161L164.0861569458389,59.874729387297826" style="fill:none;stroke:rgb(0,0,0);stroke-width:1;stroke-linecap:round"></path><path d="M320.87403238459734,-8.17975093228788L320.87403238459734,6.092880490643793L241.5916271865046,-12.850181563030795z" style="fill:rgb(233,241,221); fill-opacity: 0.78"></path><path d="M84.80375174774618,55.20429875655492L164.0861569458389,59.874729387297826L164.0861569458389,-19.981913099316102zM84.80375174774618,-24.652343730059012L84.80375174774618,55.20429875655492L164.0861569458389,-19.981913099316102z" style="fill:rgb(239,234,243); fill-opacity: 0.58"></path><path d="M84.80375174774618,-24.652343730059012L164.0861569458389,-19.9819130993161" style="fill:none;stroke:rgb(0,0,0);stroke-width:1;stroke-linecap:round"></path><path d="M313.28236948785127,52.15449137310634L233.99996428975857,47.484060742363425L326.313488228526,39.12212789676688z" style="fill:rgb(239,234,243); fill-opacity: 0.58"></path><path d="M238.12161754706312,-9.37984046741569L317.40402274515577,-4.7094098366727755M320.87403238459734,-8.179750932287881L320.87403238459734,6.092880490643793M320.87403238459734,6.092880490643793L317.40402274515577,9.5632215862589M320.87404172868526,-8.179749882907673L320.87404172868526,6.092881540023999M320.87404172868526,6.092881540023999L317.40403202030086,9.563222704588588M320.87404172868526,6.092881540023999L386.0700286742919,10.382040197450221" style="fill:none;stroke:rgb(0,0,0);stroke-width:1;stroke-linecap:round"></path><path d="M238.12161754706307,-9.379840467415688L317.40402274515577,-4.709409836672774L241.5916271865046,-12.850181563030795zM317.40402274515577,-4.709409836672774L320.87403238459734,-8.17975093228788L241.5916271865046,-12.850181563030795z" style="fill:rgb(233,241,221); fill-opacity: 0.78"></path><path d="M233.99996428975862,-6.114739877695183L233.99996428975862,47.48406074236343M233.99996428975862,47.48406074236343L313.2823694878513,52.15449137310634" style="fill:none;stroke:rgb(0,0,0);stroke-width:1;stroke-linecap:round"></path><path d="M317.40402274515577,9.5632215862589L238.12161754706307,4.892790955515984L320.87403238459734,6.092880490643793z" style="fill:rgb(233,241,221); fill-opacity: 0.78"></path><path d="M460.3394538718759,40.70149081695441L390.9673515960778,36.614864148926536L390.9673515960778,0.02799085171461442z" style="fill:rgb(239,234,243); fill-opacity: 0.58"></path><path d="M320.87403238459734,-8.179750932287881L317.40402274515577,-4.7094098366727755M320.87404172868526,-8.179749882907673L317.40403202030086,-4.709408718343085M320.87404172868526,-8.179749882907673L386.0700286742919,10.382040197450221" style="fill:none;stroke:rgb(0,0,0);stroke-width:1;stroke-linecap:round"></path><path d="M238.12161754706307,-9.379840467415688L238.12161754706307,4.892790955515984L317.40402274515577,-4.709409836672774z" style="fill:rgb(233,241,221); fill-opacity: 0.78"></path><path d="M460.3394538718759,4.114617519742492L390.9673515960778,0.027990851714614507M390.9673515960778,0.027990851714614507L382.07222922821705,8.923962883850042" style="fill:none;stroke:rgb(0,0,0);stroke-width:1;stroke-linecap:round"></path><path d="M233.99996428975857,-6.114739877695183L313.28236948785127,-1.4443092469522683L247.0310830304333,-19.147103354034652z" style="fill:rgb(239,234,243); fill-opacity: 0.58"></path><path d="M320.87403227566983,-8.179750938704668L320.87403227566983,6.092880484227004L317.40402263622826,9.563221579842109z" style="fill:rgb(215,239,244); fill-opacity: 0.78"></path><path d="M317.40402274515577,9.5632215862589L320.87403238459734,6.092880490643793L320.87403238459734,-8.17975093228788z" style="fill:rgb(233,241,221); fill-opacity: 0.78"></path><path d="M320.87403227566983,6.092880484227004L320.87403227566983,-8.179750938704668L386.07001926682284,10.382040071670469z" style="fill:rgb(215,239,244); fill-opacity: 0.78"></path><path d="M238.12161754706307,4.892790955515984L317.40402274515577,9.5632215862589L317.40402274515577,-4.709409836672774z" style="fill:rgb(233,241,221); fill-opacity: 0.78"></path><path d="M460.3394538718759,4.114617519742492L460.3394538718759,40.70149081695442M460.3394538718759,40.70149081695442L451.44433150401517,49.59746284908984" style="fill:none;stroke:rgb(0,0,0);stroke-width:1;stroke-linecap:round"></path><path d="M320.87403227566983,-8.179750938704668L317.40402263622826,9.563221579842109L317.40402263622826,-4.7094098430895635z" style="fill:rgb(215,239,244); fill-opacity: 0.78"></path><path d="M317.40402274515577,-4.709409836672774L317.40402274515577,9.5632215862589L320.87403238459734,-8.17975093228788z" style="fill:rgb(233,241,221); fill-opacity: 0.78"></path><path d="M460.3394538718759,4.114617519742492L460.3394538718759,40.70149081695441L390.9673515960778,0.02799085171461442z" style="fill:rgb(239,234,243); fill-opacity: 0.58"></path><path d="M317.40402263622826,9.563221579842109L320.87403227566983,6.092880484227004L386.07001926682284,10.382040071670469z" style="fill:rgb(215,239,244); fill-opacity: 0.78"></path><path d="M382.07222922821705,45.51083618106197L390.9673515960778,36.614864148926536L460.3394538718759,40.70149081695441zM313.28236948785127,-1.4443092469522683L313.28236948785127,52.15449137310634L326.313488228526,-14.476672723291735zM390.9673515960778,0.02799085171461442L390.9673515960778,36.614864148926536L382.07222922821705,8.923962883850042z" style="fill:rgb(239,234,243); fill-opacity: 0.58"></path><path d="M317.40402274515577,-4.7094098366727755L317.40402274515577,9.5632215862589M317.40403202030086,9.563222704588588L317.40403202030086,-4.709408718343085M317.40403202030086,9.563222704588588L386.0700286742919,10.382040197450221" style="fill:none;stroke:rgb(0,0,0);stroke-width:1;stroke-linecap:round"></path><path d="M320.87403227566983,-8.179750938704668L317.40402263622826,-4.7094098430895635L386.07001926682284,10.382040071670469z" style="fill:rgb(215,239,244); fill-opacity: 0.78"></path><path d="M233.99996428975862,-6.114739877695183L313.2823694878513,-1.444309246952265" style="fill:none;stroke:rgb(0,0,0);stroke-width:1;stroke-linecap:round"></path><path d="M233.99996428975857,-6.114739877695183L233.99996428975857,47.484060742363425L313.28236948785127,-1.4443092469522683z" style="fill:rgb(239,234,243); fill-opacity: 0.58"></path><path d="M317.40403202030086,-4.709408718343085L386.0700286742919,10.382040197450221" style="fill:none;stroke:rgb(0,0,0);stroke-width:1;stroke-linecap:round"></path><path d="M317.40402263622826,-4.7094098430895635L317.40402263622826,9.563221579842109L386.07001926682284,10.382040071670469z" style="fill:rgb(215,239,244); fill-opacity: 0.78"></path><path d="M233.99996428975857,47.484060742363425L313.28236948785127,52.15449137310634L313.28236948785127,-1.4443092469522683z" style="fill:rgb(239,234,243); fill-opacity: 0.58"></path><path d="M460.3394538718759,4.114617519742492L451.44433150401517,13.010589551877917M313.2823694878513,-1.444309246952265L313.2823694878513,52.15449137310634" style="fill:none;stroke:rgb(0,0,0);stroke-width:1;stroke-linecap:round"></path><path d="M390.9673515960778,36.614864148926536L382.07222922821705,45.51083618106197L382.07222922821705,8.923962883850042zM451.44433150401517,49.597462849089844L460.3394538718759,40.70149081695441L460.3394538718759,4.114617519742492zM451.44433150401517,13.010589551877917L460.3394538718759,4.114617519742492L390.9673515960778,0.02799085171461442zM451.44433150401517,49.597462849089844L382.07222922821705,45.51083618106197L460.3394538718759,40.70149081695441z" style="fill:rgb(239,234,243); fill-opacity: 0.58"></path><path d="M382.07222922821705,8.923962883850042L382.07222922821705,45.51083618106196M382.07222922821705,45.51083618106196L451.44433150401517,49.59746284908984M560.1059052002776,64.64910986724395L536.9818703508339,63.28690093327727M536.9818703508339,-5.964336598274649L536.9818703508339,63.28690093327727M536.9818703508339,63.28690093327727L531.3696730731915,68.89963428938296" style="fill:none;stroke:rgb(0,0,0);stroke-width:1;stroke-linecap:round"></path><path d="M382.07222922821705,8.923962883850042L451.44433150401517,13.010589551877917L390.9673515960778,0.02799085171461442z" style="fill:rgb(239,234,243); fill-opacity: 0.58"></path><path d="M472.21975830913266,27.817895006319084L507.1693043491919,29.876730506430512M560.1059052002776,-4.602127664307966L560.1059052002776,64.64910986724395M560.1059052002776,64.64910986724395L554.4937079226352,70.26184322334963M382.07222922821705,8.923962883850042L451.44433150401517,13.010589551877917" style="fill:none;stroke:rgb(0,0,0);stroke-width:1;stroke-linecap:round"></path><path d="M560.1059052002776,64.64910986724395L536.9818703508339,63.28690093327727L536.9818703508339,-5.964336598274649zM451.44433150401517,13.010589551877917L451.44433150401517,49.597462849089844L460.3394538718759,4.114617519742492zM531.3696730731915,68.89963428938296L536.9818703508339,63.28690093327727L560.1059052002776,64.64910986724395zM382.07222922821705,8.923962883850042L382.07222922821705,45.51083618106197L451.44433150401517,13.010589551877917zM382.07222922821705,45.51083618106197L451.44433150401517,49.597462849089844L451.44433150401517,13.010589551877917z" style="fill:rgb(239,234,243); fill-opacity: 0.58"></path><path d="M451.44433150401517,13.010589551877917L451.44433150401517,49.59746284908984" style="fill:none;stroke:rgb(0,0,0);stroke-width:1;stroke-linecap:round"></path><path d="M560.1059052002776,-4.602127664307959L560.1059052002776,64.64910986724395L536.9818703508339,-5.964336598274649z" style="fill:rgb(239,234,243); fill-opacity: 0.58"></path><path d="M508.8689880679919,18.554549856135896L505.4696206303919,21.95424200214896L529.4099245565023,31.186898551955963z" style="fill:rgb(0,0,0)"></path><path d="M560.1059052002776,-4.602127664307966L536.9818703508339,-5.964336598274649M536.9818703508339,-5.964336598274649L531.3696730731915,-0.3516032421689672" style="fill:none;stroke:rgb(0,0,0);stroke-width:1;stroke-linecap:round"></path><path d="M504.41915821461123,36.30254415337907L507.1693043491919,41.77059002554024L529.4099245565023,31.186898551955963z" style="fill:rgb(0,0,0)"></path><path d="M554.4937079226352,70.26184322334963L531.3696730731915,68.89963428938296L560.1059052002776,64.64910986724395zM554.4937079226352,70.26184322334963L560.1059052002776,64.64910986724395L560.1059052002776,-4.602127664307959zM536.9818703508339,-5.964336598274649L536.9818703508339,63.28690093327727L531.3696730731915,-0.3516032421689673zM536.9818703508339,63.28690093327727L531.3696730731915,68.89963428938296L531.3696730731915,-0.3516032421689673z" style="fill:rgb(239,234,243); fill-opacity: 0.58"></path><path d="M505.4696206303919,21.95424200214896L504.41915821461123,36.30254415337907L529.4099245565023,31.186898551955963z" style="fill:rgb(0,0,0)"></path><path d="M649.9518006081116,66.93591064507498L626.827765758668,65.5737017111083M626.827765758668,2.334288757494202L626.827765758668,65.5737017111083M626.827765758668,65.5737017111083L621.2155684810255,71.18643506721398M531.3696730731915,-0.3516032421689672L531.3696730731915,68.89963428938296M531.3696730731915,68.89963428938296L554.4937079226352,70.26184322334963M560.1059052002776,-4.602127664307966L554.4937079226352,1.0106056917977153M562.0656537169666,33.11060807311902L597.0151997570259,35.169443573230446M649.9518006081116,3.6964976914608845L649.9518006081116,66.93591064507498M649.9518006081116,66.93591064507498L644.3396033304691,72.54864400118066M554.4937079226352,1.0106056917977153L554.4937079226352,70.26184322334963" style="fill:none;stroke:rgb(0,0,0);stroke-width:1;stroke-linecap:round"></path><path d="M554.4937079226352,1.0106056917977218L560.1059052002776,-4.602127664307959L536.9818703508339,-5.964336598274649zM649.9518006081117,66.93591064507497L626.827765758668,65.5737017111083L626.827765758668,2.334288757494202zM621.2155684810255,71.18643506721398L626.827765758668,65.5737017111083L649.9518006081117,66.93591064507497zM531.3696730731915,68.89963428938296L554.4937079226352,70.26184322334963L554.4937079226352,1.0106056917977218zM554.4937079226352,1.0106056917977218L554.4937079226352,70.26184322334963L560.1059052002776,-4.602127664307959zM531.3696730731915,-0.3516032421689673L554.4937079226352,1.0106056917977218L536.9818703508339,-5.964336598274649zM531.3696730731915,-0.3516032421689673L531.3696730731915,68.89963428938296L554.4937079226352,1.0106056917977218zM649.9518006081117,3.6964976914608845L649.9518006081117,66.93591064507497L626.827765758668,2.334288757494202z" style="fill:rgb(239,234,243); fill-opacity: 0.58"></path><path d="M649.9518006081116,3.6964976914608845L626.827765758668,2.334288757494202M626.827765758668,2.334288757494202L621.2155684810255,7.947022113599883" style="fill:none;stroke:rgb(0,0,0);stroke-width:1;stroke-linecap:round"></path><path d="M598.7148834758259,23.847262922935826L595.315516038226,27.24695506894889L619.2558199643364,36.4796116187559zM594.2650536224453,41.595257220179L597.0151997570259,47.06330309234018L619.2558199643364,36.4796116187559z" style="fill:rgb(0,0,0)"></path><path d="M531.3696730731915,-0.3516032421689672L554.4937079226352,1.0106056917977153" style="fill:none;stroke:rgb(0,0,0);stroke-width:1;stroke-linecap:round"></path><path d="M626.827765758668,2.334288757494202L626.827765758668,65.5737017111083L621.2155684810255,7.947022113599883zM644.3396033304692,72.54864400118065L649.9518006081117,66.93591064507497L649.9518006081117,3.6964976914608845zM644.3396033304692,72.54864400118065L621.2155684810255,71.18643506721398L649.9518006081117,66.93591064507497zM626.827765758668,65.5737017111083L621.2155684810255,71.18643506721398L621.2155684810255,7.947022113599883z" style="fill:rgb(239,234,243); fill-opacity: 0.58"></path><path d="M595.315516038226,27.24695506894889L594.2650536224453,41.595257220179L619.2558199643364,36.4796116187559z" style="fill:rgb(0,0,0)"></path><path d="M649.9518006081116,3.6964976914608845L644.3396033304691,9.309231047566566M621.2155684810255,7.947022113599883L621.2155684810255,71.18643506721398M621.2155684810255,71.18643506721398L644.3396033304691,72.54864400118066M739.7976960159457,57.04089163937511L716.673661166502,55.67868270540843M716.673661166502,22.814733896793935L716.673661166502,55.67868270540843M716.673661166502,55.67868270540843L711.0614638888596,61.29141606151411M651.9115491248008,38.40332113991896L686.86109516486,40.462156640030386" style="fill:none;stroke:rgb(0,0,0);stroke-width:1;stroke-linecap:round"></path><path d="M644.3396033304692,9.309231047566566L649.9518006081117,3.6964976914608845L626.827765758668,2.334288757494202z" style="fill:rgb(239,234,243); fill-opacity: 0.58"></path><path d="M644.3396033304691,9.309231047566566L644.3396033304691,72.54864400118066" style="fill:none;stroke:rgb(0,0,0);stroke-width:1;stroke-linecap:round"></path><path d="M739.7976960159457,57.04089163937511L716.673661166502,55.67868270540843L716.673661166502,22.814733896793935z" style="fill:rgb(239,234,243); fill-opacity: 0.58"></path><path d="M739.7976960159457,24.176942830760616L739.7976960159457,57.04089163937511M739.7976960159457,57.04089163937511L734.1854987383033,62.6536249954808" style="fill:none;stroke:rgb(0,0,0);stroke-width:1;stroke-linecap:round"></path><path d="M644.3396033304692,9.309231047566566L644.3396033304692,72.54864400118065L649.9518006081117,3.6964976914608845zM621.2155684810255,71.18643506721398L644.3396033304692,72.54864400118065L644.3396033304692,9.309231047566566zM621.2155684810255,7.947022113599883L644.3396033304692,9.309231047566566L626.827765758668,2.334288757494202z" style="fill:rgb(239,234,243); fill-opacity: 0.58"></path><path d="M739.7976960159457,24.176942830760616L716.673661166502,22.814733896793935M716.673661166502,22.814733896793935L711.0614638888596,28.42746725289962" style="fill:none;stroke:rgb(0,0,0);stroke-width:1;stroke-linecap:round"></path><path d="M739.7976960159457,24.176942830760616L739.7976960159457,57.04089163937511L716.673661166502,22.814733896793935zM711.0614638888596,61.291416061514106L716.673661166502,55.67868270540843L739.7976960159457,57.04089163937511zM621.2155684810255,7.947022113599883L621.2155684810255,71.18643506721398L644.3396033304692,9.309231047566566z" style="fill:rgb(239,234,243); fill-opacity: 0.58"></path><path d="M688.5607788836601,29.139975989735767L685.1614114460601,32.53966813574883L709.1017153721705,41.77232468555583z" style="fill:rgb(0,0,0)"></path><path d="M716.673661166502,22.814733896793935L716.673661166502,55.67868270540843L711.0614638888596,28.42746725289962z" style="fill:rgb(239,234,243); fill-opacity: 0.58"></path><path d="M684.1109490302795,46.88797028697894L686.8610951648601,52.35601615914011L709.1017153721705,41.77232468555583z" style="fill:rgb(0,0,0)"></path><path d="M621.2155684810255,7.947022113599883L644.3396033304691,9.309231047566566M739.7976960159457,24.176942830760616L734.1854987383033,29.789676186866306" style="fill:none;stroke:rgb(0,0,0);stroke-width:1;stroke-linecap:round"></path><path d="M734.1854987383033,62.6536249954808L739.7976960159457,57.04089163937511L739.7976960159457,24.176942830760616z" style="fill:rgb(239,234,243); fill-opacity: 0.58"></path><path d="M685.1614114460601,32.53966813574883L684.1109490302795,46.88797028697894L709.1017153721705,41.77232468555583z" style="fill:rgb(0,0,0)"></path><path d="M716.673661166502,55.67868270540843L711.0614638888596,61.291416061514106L711.0614638888596,28.42746725289962zM734.1854987383033,62.6536249954808L711.0614638888596,61.291416061514106L739.7976960159457,57.04089163937511zM734.1854987383033,29.789676186866306L739.7976960159457,24.176942830760616L716.673661166502,22.814733896793935z" style="fill:rgb(239,234,243); fill-opacity: 0.58"></path><path d="M711.0614638888596,28.42746725289962L711.0614638888596,61.29141606151411M711.0614638888596,61.29141606151411L734.1854987383033,62.6536249954808" style="fill:none;stroke:rgb(0,0,0);stroke-width:1;stroke-linecap:round"></path><path d="M711.0614638888596,28.42746725289962L734.1854987383033,29.789676186866306L716.673661166502,22.814733896793935zM734.1854987383033,29.789676186866306L734.1854987383033,62.6536249954808L739.7976960159457,24.176942830760616z" style="fill:rgb(239,234,243); fill-opacity: 0.58"></path><path d="M734.1854987383033,29.789676186866306L734.1854987383033,62.6536249954808" style="fill:none;stroke:rgb(0,0,0);stroke-width:1;stroke-linecap:round"></path><path d="M711.0614638888596,61.291416061514106L734.1854987383033,62.6536249954808L734.1854987383033,29.789676186866306zM711.0614638888596,28.42746725289962L711.0614638888596,61.291416061514106L734.1854987383033,29.789676186866306z" style="fill:rgb(239,234,243); fill-opacity: 0.58"></path><path d="M711.0614638888596,28.42746725289962L734.1854987383033,29.789676186866306" style="fill:none;stroke:rgb(0,0,0);stroke-width:1;stroke-linecap:round"></path></svg>